<svg width="18" height="18" viewBox="0 0 18 18" fill="none" xmlns="http://www.w3.org/2000/svg">
<path d="M17.9995 9.03281C17.9995 4.04417 13.9701 0 8.99975 0C4.02937 0 0 4.04417 0 9.03281C0 13.2688 2.90584 16.8234 6.82577 17.7997V11.7932H4.97002V9.03281H6.82577V7.84337C6.82577 4.76896 8.2121 3.34395 11.2195 3.34395C11.7897 3.34395 12.7735 3.45632 13.176 3.56832V6.07041C12.9636 6.04801 12.5946 6.03681 12.1363 6.03681C10.6607 6.03681 10.0905 6.59793 10.0905 8.05655V9.03281H13.0302L12.5251 11.7932H10.0905V17.9995C14.5468 17.4593 17.9995 13.6511 17.9995 9.03281Z" fill="#0866FF"/>
</svg>
