<svg width="18" height="18" viewBox="0 0 18 18" fill="none" xmlns="http://www.w3.org/2000/svg">
<path d="M8.99707 0C3.92796 0 -0.00268555 3.71465 -0.00268555 8.72976C-0.00268555 11.3532 1.07278 13.6211 2.82324 15.1871C2.96948 15.3176 3.05948 15.5021 3.06398 15.7001L3.11348 17.302C3.11708 17.4199 3.14958 17.5351 3.20813 17.6374C3.26667 17.7398 3.34946 17.8262 3.44922 17.8891C3.54898 17.952 3.66266 17.9894 3.78027 17.9981C3.89787 18.0067 4.01581 17.9864 4.1237 17.9388L5.91015 17.1513C6.0609 17.0838 6.23189 17.0725 6.39164 17.1153C7.21287 17.3403 8.08584 17.4618 8.99707 17.4618C14.0662 17.4618 17.9968 13.7471 17.9968 8.73201C17.9968 3.7169 14.0662 0 8.99707 0Z" fill="url(#paint0_radial_456_2261)"/>
<path d="M3.59267 11.2834L6.23635 7.08955C6.3358 6.93165 6.4669 6.79609 6.62139 6.69141C6.77587 6.58674 6.95038 6.51524 7.1339 6.48141C7.31741 6.44758 7.50595 6.45217 7.6876 6.49488C7.86925 6.53759 8.04008 6.6175 8.18929 6.72956L10.293 8.30676C10.3869 8.37708 10.5012 8.41489 10.6185 8.41448C10.7358 8.41408 10.8498 8.37547 10.9432 8.30451L13.7826 6.14907C14.1606 5.86108 14.6556 6.31557 14.4036 6.71831L11.7577 10.9099C11.6582 11.0678 11.5271 11.2034 11.3727 11.3081C11.2182 11.4127 11.0437 11.4843 10.8601 11.5181C10.6766 11.5519 10.4881 11.5473 10.3064 11.5046C10.1248 11.4619 9.95396 11.382 9.80475 11.2699L7.70106 9.69273C7.60714 9.62241 7.49288 9.5846 7.37556 9.58501C7.25824 9.58541 7.14425 9.62402 7.05082 9.69498L4.2114 11.8504C3.83341 12.1384 3.33843 11.6862 3.59267 11.2834Z" fill="white"/>
<defs>
<radialGradient id="paint0_radial_456_2261" cx="0" cy="0" r="1" gradientUnits="userSpaceOnUse" gradientTransform="translate(3.01223 17.9995) scale(19.7995)">
<stop stop-color="#0099FF"/>
<stop offset="0.6" stop-color="#A033FF"/>
<stop offset="0.9" stop-color="#FF5280"/>
<stop offset="1" stop-color="#FF7061"/>
</radialGradient>
</defs>
</svg>
