<svg width="18" height="18" viewBox="0 0 18 18" fill="none" xmlns="http://www.w3.org/2000/svg">
<path d="M16.6693 0H1.32725C0.974852 0 0.636889 0.139989 0.387707 0.389171C0.138524 0.638354 -0.00146484 0.976317 -0.00146484 1.32871V16.6708C-0.00146484 17.0232 0.138524 17.3612 0.387707 17.6103C0.636889 17.8595 0.974852 17.9995 1.32725 17.9995H16.6693C17.0217 17.9995 17.3597 17.8595 17.6089 17.6103C17.8581 17.3612 17.998 17.0232 17.998 16.6708V1.32871C17.998 0.976317 17.8581 0.638354 17.6089 0.389171C17.3597 0.139989 17.0217 0 16.6693 0ZM5.36339 15.3333H2.65721V6.73732H5.36339V15.3333ZM4.00843 5.5461C3.70146 5.54437 3.40188 5.45175 3.1475 5.27992C2.89312 5.10809 2.69534 4.86476 2.57912 4.58064C2.4629 4.29652 2.43345 3.98433 2.49449 3.68349C2.55553 3.38265 2.70431 3.10662 2.92207 2.89026C3.13983 2.67389 3.4168 2.52688 3.71803 2.46778C4.01926 2.40867 4.33125 2.44013 4.61462 2.55817C4.89799 2.67621 5.14005 2.87555 5.31024 3.13102C5.48043 3.3865 5.57112 3.68667 5.57088 3.99364C5.57378 4.19916 5.53527 4.40316 5.45764 4.59348C5.38002 4.7838 5.26488 4.95654 5.11907 5.10141C4.97327 5.24628 4.79979 5.36031 4.60898 5.43671C4.41816 5.51311 4.21392 5.55031 4.00843 5.5461ZM15.3381 15.3408H12.6332V10.6447C12.6332 9.25975 12.0445 8.83226 11.2845 8.83226C10.482 8.83226 9.69452 9.43724 9.69452 10.6797V15.3408H6.98834V6.74357H9.59077V7.93478H9.62577C9.88702 7.40605 10.802 6.50232 12.1982 6.50232C13.7082 6.50232 15.3394 7.39855 15.3394 10.0235L15.3381 15.3408Z" fill="#0A66C2"/>
</svg>
