<svg width="19" height="18" viewBox="0 0 19 18" fill="none" xmlns="http://www.w3.org/2000/svg">
<path d="M9.49634 17.9995C14.4668 17.9995 18.4961 13.9702 18.4961 8.99975C18.4961 4.02933 14.4668 0 9.49634 0C4.52591 0 0.496582 4.02933 0.496582 8.99975C0.496582 13.9702 4.52591 17.9995 9.49634 17.9995Z" fill="url(#paint0_linear_456_2262)"/>
<path fill-rule="evenodd" clip-rule="evenodd" d="M4.57033 8.90487C7.19394 7.7618 8.94343 7.00822 9.81879 6.64413C12.3181 5.60458 12.8375 5.424 13.176 5.41803C13.2504 5.41672 13.4169 5.43517 13.5247 5.52267C13.6157 5.59655 13.6408 5.69635 13.6528 5.76639C13.6648 5.83644 13.6797 5.996 13.6678 6.12068C13.5324 7.54375 12.9463 10.9972 12.6482 12.591C12.522 13.2655 12.2736 13.4916 12.0331 13.5137C11.5105 13.5618 11.1137 13.1683 10.6075 12.8365C9.81536 12.3173 9.36788 11.9941 8.59901 11.4874C7.71045 10.9018 8.28647 10.58 8.79285 10.0541C8.92538 9.91642 11.2281 7.82192 11.2727 7.63191C11.2783 7.60815 11.2834 7.51957 11.2308 7.4728C11.1782 7.42602 11.1005 7.44202 11.0445 7.45474C10.965 7.47277 9.69964 8.30914 7.24832 9.96385C6.88914 10.2105 6.56381 10.3307 6.27233 10.3244C5.95099 10.3174 5.33287 10.1427 4.87336 9.9933C4.30975 9.81009 3.8618 9.71323 3.90081 9.40209C3.92112 9.24003 4.1443 9.07428 4.57033 8.90487Z" fill="white"/>
<defs>
<linearGradient id="paint0_linear_456_2262" x1="9.49634" y1="0" x2="9.49634" y2="17.866" gradientUnits="userSpaceOnUse">
<stop stop-color="#2AABEE"/>
<stop offset="1" stop-color="#229ED9"/>
</linearGradient>
</defs>
</svg>
