<svg width="19" height="18" viewBox="0 0 19 18" fill="none" xmlns="http://www.w3.org/2000/svg">
<path d="M0.497803 17.9995L1.76906 13.3774C0.984602 12.0244 0.572405 10.4907 0.573159 8.918C0.575419 4.00114 4.59566 0 9.53523 0C11.9323 0.000749979 14.1824 0.929974 15.8749 2.61593C17.5667 4.30188 18.4981 6.54282 18.4973 8.92626C18.495 13.8439 14.4748 17.845 9.53523 17.845C8.03565 17.8443 6.55792 17.47 5.24899 16.759L0.497803 17.9995ZM5.46903 15.1443C6.73199 15.8906 7.93769 16.3376 9.53222 16.3383C13.6376 16.3383 16.9819 13.0129 16.9842 8.92476C16.9857 4.82837 13.6572 1.50746 9.53825 1.50596C5.42984 1.50596 2.08781 4.83137 2.0863 8.91876C2.08555 10.5875 2.57687 11.8369 3.40202 13.1441L2.64921 15.8801L5.46903 15.1443ZM14.0498 11.0464C13.994 10.9535 13.8448 10.898 13.6203 10.7862C13.3965 10.6745 12.2955 10.1352 12.0898 10.061C11.8848 9.98673 11.7356 9.94923 11.5857 10.1727C11.4365 10.3955 11.0069 10.898 10.8766 11.0464C10.7462 11.1949 10.6151 11.2137 10.3913 11.1019C10.1675 10.9902 9.44556 10.7555 8.59027 9.99573C7.92488 9.40474 7.475 8.67501 7.34464 8.45152C7.21427 8.22877 7.33107 8.10803 7.4426 7.99703C7.54358 7.89728 7.66641 7.73679 7.77869 7.60629C7.89247 7.47729 7.9294 7.3843 8.00476 7.23505C8.07936 7.08656 8.04243 6.95606 7.98592 6.84431C7.9294 6.73332 7.48179 5.6361 7.29566 5.18986C7.1133 4.75562 6.92867 4.81412 6.79153 4.80737L6.362 4.79987C6.21279 4.79987 5.97015 4.85537 5.76518 5.07886C5.56021 5.30235 4.98148 5.84084 4.98148 6.93806C4.98148 8.03528 5.78402 9.095 5.89554 9.2435C6.00782 9.39199 7.47425 11.6434 9.72061 12.6087C10.2549 12.8381 10.6724 12.9754 10.9971 13.0781C11.5337 13.2476 12.022 13.2236 12.4078 13.1666C12.8381 13.1029 13.7326 12.6274 13.9194 12.1069C14.1063 11.5857 14.1063 11.1394 14.0498 11.0464Z" fill="#25D366"/>
</svg>
